# xmcd
#
# Track frame offsets: 
#        150
#        17680
#        33416
#        47720
#        62057
#        81663
#        100235
#        117398
#        131613
#        152445
#        169500
#        190061
#
# Disc length: 2755 seconds
#
# Revision: 0
# Processed by: cddbd v1.5.2PL0 Copyright (c) Steve Scherf et al.
# Submitted via: ExactAudioCopyFreeDBPlugin 1.0
#
DISCID=980ac10c
DTITLE=Suzie Vinnick - Shake The Love Around
DYEAR=2018
DGENRE=Blues
TTITLE0=Happy As Hell
TTITLE1=The Golden Rule
TTITLE2=Lean Into The Light
TTITLE3=Watch Me
TTITLE4=A Hundred And Ten In the Shade
TTITLE5=Crying A River For You
TTITLE6=Danger Zone
TTITLE7=Find Some Freedom
TTITLE8=Creaking Pines
TTITLE9=All I Wanna Do
TTITLE10=Beautiful Little Fool
TTITLE11=Drift Away
EXTD=
EXTT0=
EXTT1=
EXTT2=
EXTT3=
EXTT4=
EXTT5=
EXTT6=
EXTT7=
EXTT8=
EXTT9=
EXTT10=
EXTT11=
PLAYORDER=
